<?xml version="1.0" encoding="UTF-8"?>
<svg width="157px" height="157px" viewBox="0 0 157 157" version="1.1" xmlns="http://www.w3.org/2000/svg" xmlns:xlink="http://www.w3.org/1999/xlink">
    <!-- Generator: Sketch 51.1 (57501) - http://www.bohemiancoding.com/sketch -->
    <title>flower-of-life</title>
    <desc>Created with Sketch.</desc>
    <defs></defs>
    <g id="Page-1" stroke="none" stroke-width="1" fill="none" fill-rule="evenodd">
        <g id="flower-of-life" transform="translate(1.000000, 1.000000)" stroke="#1A1919" stroke-width="0.748">
            <path d="M134.080627,45.8893775 C134.080627,69.8393775 114.664627,89.2553775 90.7176273,89.2553775 C66.7656273,89.2553775 47.3496273,69.8393775 47.3496273,45.8893775 C47.3496273,21.9383775 66.7656273,2.52237754 90.7176273,2.52237754 C114.664627,2.52237754 134.080627,21.9383775 134.080627,45.8893775 Z M141.928627,70.4913775 C132.577627,92.5403775 107.124627,102.835378 85.0736273,93.4873775 C63.0246273,84.1353775 52.7286273,58.6823775 62.0756273,36.6343775 C71.4276273,14.5813775 96.8806273,4.28837754 118.932627,13.6353775 C140.982627,22.9873775 151.275627,48.4383775 141.928627,70.4913775 Z M139.548627,96.2043775 C122.331627,112.852378 94.8806273,112.395378 78.2286273,95.1803775 C61.5776273,77.9663775 62.0356273,50.5123775 79.2496273,33.8623775 C96.4646273,17.2123775 123.920627,17.6673775 140.571627,34.8843775 C157.221627,52.0953775 156.764627,79.5503775 139.548627,96.2043775 Z M127.320627,118.944378 C104.972627,127.555378 79.8756273,116.417378 71.2666273,94.0673775 C62.6546273,71.7193775 73.7946273,46.6203775 96.1426273,38.0103775 C118.492627,29.4013775 143.589627,40.5403775 152.200627,62.8913775 C160.810627,85.2373775 149.670627,110.337378 127.320627,118.944378 Z M107.183627,135.112378 C83.2496273,134.313378 64.4916273,114.262378 65.2896273,90.3233775 C66.0856273,66.3893775 86.1386273,47.6303775 110.073627,48.4283775 C134.011627,49.2253775 152.769627,69.2753775 151.972627,93.2143775 C151.174627,117.153378 131.122627,135.909378 107.183627,135.112378 Z M82.3366273,142.135378 C60.6126273,132.057378 51.1696273,106.272378 61.2476273,84.5463775 C71.3266273,62.8193775 97.1116273,53.3803775 118.835627,63.4563775 C140.562627,73.5363775 150.003627,99.3173775 139.925627,121.046378 C129.846627,142.770378 104.062627,152.214378 82.3366273,142.135378 Z M56.7166273,138.900378 C40.6506273,121.139378 42.0236273,93.7143775 59.7826273,77.6473775 C77.5446273,61.5813775 104.966627,62.9523775 121.034627,80.7133775 C137.104627,98.4753775 135.732627,125.897378 117.972627,141.966378 C100.208627,158.032378 72.7866273,156.660378 56.7166273,138.900378 Z M34.3946273,125.921378 C26.5346273,103.298378 38.5036273,78.5873775 61.1266273,70.7273775 C83.7516273,62.8643775 108.460627,74.8353775 116.323627,97.4563775 C124.181627,120.081378 112.214627,144.792378 89.5906273,152.654378 C66.9666273,160.514378 42.2556273,148.546378 34.3946273,125.921378 Z M18.9086273,105.259378 C20.5036273,81.3623775 41.1706273,63.2843775 65.0666273,64.8783775 C88.9626273,66.4733775 107.042627,87.1373775 105.447627,111.034378 C103.853627,134.932378 83.1866273,153.010378 59.2906273,151.416378 C35.3946273,149.821378 17.3146273,129.156378 18.9086273,105.259378 Z M12.7186273,80.1903775 C23.5136273,58.8133775 49.5976273,50.2333775 70.9786273,61.0303775 C92.3556273,71.8273775 100.931627,97.9113775 90.1366273,119.290378 C79.3386273,140.667378 53.2556273,149.245378 31.8766273,138.449378 C10.4976273,127.651378 1.92162726,101.570378 12.7186273,80.1903775 Z M16.8046273,54.6923775 C35.0896273,39.2273775 62.4516273,41.5103775 77.9196273,59.7963775 C93.3866273,78.0833775 91.1016273,105.446378 72.8176273,120.913378 C54.5306273,136.381378 27.1676273,134.094378 11.6986273,115.809378 C-3.76537274,97.5233775 -1.48237274,70.1613775 16.8046273,54.6923775 Z M30.5196273,32.8153775 C53.3916273,25.7143775 77.6916273,38.4953775 84.7946273,61.3683775 C91.8936273,84.2453775 79.1106273,108.542378 56.2376273,115.645378 C33.3646273,122.747378 9.06662726,109.964378 1.96062726,87.0913775 C-5.13837274,64.2163775 7.64662726,39.9193775 30.5196273,32.8153775 Z M51.6876273,18.0253775 C75.5176273,20.4153775 92.8986273,41.6733775 90.5096273,65.5013775 C88.1186273,89.3353775 66.8616273,106.716378 43.0296273,104.323378 C19.1986273,101.932378 1.81862726,80.6783775 4.20762726,56.8483775 C6.59962726,33.0153775 27.8556273,15.6373775 51.6876273,18.0253775 Z M76.9486273,12.6753775 C97.9526273,24.1763775 105.655627,50.5323775 94.1556273,71.5383775 C82.6506273,92.5463775 56.2966273,100.248378 35.2886273,88.7453775 C14.2846273,77.2413775 6.57762726,50.8873775 18.0806273,29.8823775 C29.5856273,8.87237754 55.9396273,1.17137754 76.9486273,12.6753775 Z M99.2886273,16.7143775 C114.927627,34.8483775 112.902627,62.2333775 94.7656273,77.8723775 C76.6216273,93.5123775 49.2396273,91.4833775 33.6026273,73.3463775 C17.9616273,55.2083775 19.9876273,27.8253775 38.1246273,12.1843775 C56.2676273,-3.45562246 83.6486273,-1.42662246 99.2886273,16.7143775 Z M119.263627,28.6813775 C127.376627,51.2103775 115.695627,76.0593775 93.1596273,84.1763775 C70.6246273,92.2923775 45.7816273,80.6063775 37.6626273,58.0753775 C29.5466273,35.5443775 41.2306273,10.6983775 63.7626273,2.57737754 C86.2976273,-5.53762246 111.139627,6.14737754 119.263627,28.6813775 Z" id="Stroke-81"></path>
        </g>
    </g>
</svg>