<?xml version="1.0" encoding="UTF-8"?>
<svg width="177px" height="178px" viewBox="0 0 177 178" version="1.1" xmlns="http://www.w3.org/2000/svg" xmlns:xlink="http://www.w3.org/1999/xlink">
    <!-- Generator: Sketch 51.1 (57501) - http://www.bohemiancoding.com/sketch -->
    <title>sacred-flower</title>
    <desc>Created with Sketch.</desc>
    <defs></defs>
    <g id="Page-1" stroke="none" stroke-width="1" fill="none" fill-rule="evenodd">
        <g id="sacred-flower" transform="translate(1.000000, 0.000000)" stroke="#1A1919">
            <path d="M105.827,44.253 C105.827,68.695 97.684,88.507 87.636,88.507 C77.59,88.507 69.441,68.695 69.441,44.253 C69.441,19.813 87.636,0 87.636,0 C87.636,0 105.827,19.813 105.827,44.253 Z M117.553,51.166 C110.673,74.618 97.276,91.339 87.636,88.507 C77.992,85.676 75.758,64.37 82.642,40.923 C89.522,17.468 112.56,3.582 112.56,3.582 C112.56,3.582 124.435,27.715 117.553,51.166 Z M126.857,61.105 C113.649,81.668 96.089,93.939 87.636,88.507 C79.181,83.075 83.034,62.006 96.242,41.439 C109.452,20.875 135.465,14.036 135.465,14.036 C135.465,14.036 140.066,40.538 126.857,61.105 Z M132.986,73.259 C114.525,89.271 94.222,96.097 87.636,88.507 C81.052,80.918 90.684,61.782 109.148,45.768 C127.614,29.755 154.501,30.518 154.501,30.518 C154.501,30.518 151.451,57.243 132.986,73.259 Z M135.445,86.645 C113.219,96.812 91.816,97.644 87.636,88.507 C83.457,79.368 98.087,63.722 120.313,53.556 C142.538,43.386 168.125,51.693 168.125,51.693 C168.125,51.693 157.673,76.48 135.445,86.645 Z M134.035,100.183 C109.846,103.679 89.074,98.45 87.636,88.507 C86.198,78.561 104.643,67.669 128.833,64.172 C153.023,60.676 175.234,75.85 175.234,75.85 C175.234,75.85 158.225,96.689 134.035,100.183 Z M128.869,112.778 C104.676,109.318 86.216,98.454 87.636,88.507 C89.057,78.557 109.821,73.3 134.019,76.759 C158.213,80.216 175.252,101.029 175.252,101.029 C175.252,101.029 153.065,116.234 128.869,112.778 Z M120.368,123.406 C98.126,113.276 83.472,97.65 87.636,88.507 C91.802,79.359 113.206,80.162 135.449,90.292 C157.692,100.426 168.182,125.195 168.182,125.195 C168.182,125.195 142.609,133.536 120.368,123.406 Z M109.215,131.211 C90.725,115.228 81.063,96.109 87.636,88.507 C94.209,80.905 114.523,87.7 133.011,103.688 C151.501,119.671 154.592,146.391 154.592,146.391 C154.592,146.391 127.704,147.194 109.215,131.211 Z M96.317,135.56 C83.074,115.018 79.192,93.951 87.636,88.507 C96.081,83.064 113.661,95.302 126.899,115.85 C140.14,136.392 135.583,162.901 135.583,162.901 C135.583,162.901 109.557,156.104 96.317,135.56 Z M82.715,136.1 C75.794,112.661 78.001,91.351 87.636,88.507 C97.274,85.659 110.693,102.356 117.612,125.8 C124.53,149.239 112.691,173.396 112.691,173.396 C112.691,173.396 89.635,159.543 82.715,136.1 Z M69.511,132.789 C69.474,108.349 77.59,88.523 87.636,88.507 C97.686,88.491 105.858,108.292 105.899,132.729 C105.937,157.174 87.775,177.015 87.775,177.015 C87.775,177.015 69.551,157.23 69.511,132.789 Z M57.777,125.894 C64.618,102.43 77.991,85.696 87.636,88.507 C97.282,91.318 99.552,112.62 92.704,136.083 C85.859,159.547 62.846,173.469 62.846,173.469 C62.846,173.469 50.931,149.356 57.777,125.894 Z M48.457,115.971 C61.631,95.387 79.174,83.091 87.636,88.507 C96.097,93.924 92.279,115.001 79.1,135.584 C65.924,156.172 39.922,163.051 39.922,163.051 C39.922,163.051 35.281,136.559 48.457,115.971 Z M42.307,103.829 C60.748,87.785 81.044,80.926 87.636,88.507 C94.23,96.089 84.632,115.236 66.19,131.276 C47.751,147.32 20.862,146.598 20.862,146.598 C20.862,146.598 23.869,119.868 42.307,103.829 Z M39.83,90.441 C62.04,80.244 83.443,79.376 87.636,88.507 C91.83,97.634 77.222,113.31 55.014,123.508 C32.802,133.706 7.205,125.447 7.205,125.447 C7.205,125.447 17.617,100.645 39.83,90.441 Z M41.218,76.9 C65.401,73.368 86.183,78.564 87.636,88.507 C89.088,98.45 70.661,109.37 46.479,112.904 C22.293,116.437 0.057,101.302 0.057,101.302 C0.057,101.302 17.034,80.435 41.218,76.9 Z M46.364,64.301 C70.565,67.721 89.041,78.557 87.636,88.507 C86.23,98.454 65.472,103.748 41.273,100.328 C17.071,96.908 0,76.122 0,76.122 C0,76.122 22.164,60.878 46.364,64.301 Z M54.852,53.661 C77.111,63.754 91.785,79.356 87.636,88.507 C83.486,97.658 62.077,96.889 39.821,86.792 C17.559,76.698 7.033,51.945 7.033,51.945 C7.033,51.945 32.592,43.564 54.852,53.661 Z M65.991,45.836 C84.506,61.79 94.195,80.897 87.636,88.507 C81.076,96.118 60.75,89.352 42.238,73.397 C23.723,57.441 20.59,30.726 20.59,30.726 C20.59,30.726 47.475,29.877 65.991,45.836 Z M78.884,41.467 C92.155,61.989 96.074,83.052 87.636,88.507 C79.198,93.964 61.6,81.748 48.329,61.227 C35.055,40.699 39.575,14.186 39.575,14.186 C39.575,14.186 65.612,20.944 78.884,41.467 Z M92.481,40.907 C99.438,64.339 97.268,85.647 87.636,88.507 C78.003,91.367 64.558,74.69 57.602,51.263 C50.645,27.829 62.448,3.66 62.448,3.66 C62.448,3.66 85.528,17.476 92.481,40.907 Z" id="Stroke-78"></path>
        </g>
    </g>
</svg>