<?xml version="1.0" encoding="UTF-8"?>
<svg width="165px" height="148px" viewBox="0 0 165 148" version="1.1" xmlns="http://www.w3.org/2000/svg" xmlns:xlink="http://www.w3.org/1999/xlink">
    <!-- Generator: Sketch 51.1 (57501) - http://www.bohemiancoding.com/sketch -->
    <title>Group 2</title>
    <desc>Created with Sketch.</desc>
    <defs></defs>
    <g id="Page-1" stroke="none" stroke-width="1" fill="none" fill-rule="evenodd" stroke-linecap="round" stroke-linejoin="round">
        <g id="Group-2" transform="translate(1.000000, 1.000000)" stroke="#1A1919" stroke-width="0.75">
            <path d="M0.056,145.668 L87.054,9.837 M0.111,145.639 L92.111,18.653 M0.083,145.613 L98.99,30.924 M0.111,145.639 L106.619,44.437 M0.111,145.639 L115.075,59.526 M0.22,145.694 L125.439,78.015 M0.111,145.668 L136.632,97.995 M0,145.639 L152.219,125.687 M81.718,0 L81.747,0 L0.028,145.668 M163.548,145.668 L76.55,9.837 M163.493,145.639 L71.492,18.653 M163.522,145.613 L64.613,30.924 M163.493,145.639 L56.985,44.437 M163.493,145.639 L48.529,59.526 M163.383,145.694 L38.165,78.015 M163.493,145.668 L26.973,97.995 M163.605,145.639 L11.386,125.687 M81.888,0 L81.859,0 L163.577,145.668" id="Stroke-76"></path>
        </g>
    </g>
</svg>