<?xml version="1.0" encoding="UTF-8"?>
<svg width="162px" height="140px" viewBox="0 0 162 140" version="1.1" xmlns="http://www.w3.org/2000/svg" xmlns:xlink="http://www.w3.org/1999/xlink">
    <!-- Generator: Sketch 51.1 (57501) - http://www.bohemiancoding.com/sketch -->
    <title>Group</title>
    <desc>Created with Sketch.</desc>
    <defs></defs>
    <g id="Page-1" stroke="none" stroke-width="1" fill="none" fill-rule="evenodd" stroke-linecap="round" stroke-linejoin="round">
        <g id="Group" transform="translate(1.000000, 0.000000)" stroke="#1A1919" stroke-width="0.75">
            <path d="M0,139.078 L80.296,0 L160.591,139.078 L0,139.078 Z M16.002,111.477 L96.037,27.859 L128.434,138.981 L16.002,111.477 Z M40.8,85.555 L106.172,62.173 L93.735,130.475 L40.8,85.555 Z M56.165,80.367 L103.162,78.188 L81.55,119.982 L56.165,80.367 Z M71.065,79.599 L96.343,91.249 L73.62,107.315 L71.065,79.599 Z M78.594,83.19 L89.488,96.137 L72.838,99.135 L78.594,83.19 Z M81.842,87.156 L84.452,97.047 L74.573,94.386 L81.842,87.156 Z" id="Stroke-74"></path>
        </g>
    </g>
</svg>